<?xml version="1.0" encoding="utf-8"?>
<!-- Generator: Adobe Illustrator 20.0.0, SVG Export Plug-In . SVG Version: 6.00 Build 0)  -->
<svg version="1.1" id="Layer_1" xmlns="http://www.w3.org/2000/svg" xmlns:xlink="http://www.w3.org/1999/xlink" x="0px" y="0px"
	 viewBox="0 0 236.1 194.2" style="enable-background:new 0 0 236.1 194.2;" xml:space="preserve">
<style type="text/css">
	.st0{fill:#ADADAD;}
</style>
<g>
	<path class="st0" d="M214.4,179.4c-11.3,0-16.7-1.2-36.3-8.3c-5.4,6-6,7.4-6,16.7l-13.7-9.2l-7.7-29.5c-1.2-3.6-2.7-6.8-5.1-9.8
		c-5.4-7.1-10.4-10.7-24.7-17.3L71.2,140l-53.6,49.7l-16.7,4.5V188c0-14.3,3.3-23.8,11.3-32.2l23.5-24.4l40.8-82.2l3.6-20.8
		c1.5-8.3,4.8-13.7,17-27.7c15.2,13.7,18.2,17.3,20.8,26.8l13.4,46.2l24.7,31.6l16.7,26.8c4.2,6.3,8.9,11.9,14,16.7
		c6,5.4,9.8,7.1,19.4,9.5l26.8-12.5c1.8,4.8,3.3,10.1,3.3,12.8C236.1,171.6,228.1,179.4,214.4,179.4z M107.5,89.7h-7.1
		c-4.5,3.9-5.4,5.1-7.1,11.3l3,3h4.2c2.1-2.7,3-3,7.1-4.2V89.7z M106.3,54.9c-3,2.4-5.1,8.3-5.1,10.1c0,2.1,0.6,4.8,2.1,8.3h5.1
		c5.1-6.3,6-9.8,5.1-13.4C113.4,60,109.9,57.6,106.3,54.9z M114.6,110.3l-6.3-4.2c-2.1,2.1-3,2.7-7.1,5.1l2.1,2.1v7.1h3l11.3-4.5
		L114.6,110.3z"/>
</g>
</svg>
