<?xml version="1.0" encoding="utf-8"?>
<!-- Generator: Adobe Illustrator 20.0.0, SVG Export Plug-In . SVG Version: 6.00 Build 0)  -->
<svg version="1.1" id="Layer_1" xmlns="http://www.w3.org/2000/svg" xmlns:xlink="http://www.w3.org/1999/xlink" x="0px" y="0px"
	 viewBox="0 0 178.3 178.3" style="enable-background:new 0 0 178.3 178.3;" xml:space="preserve">
<style type="text/css">
	.st0{fill:#181819;}
</style>
<g>
	<path class="st0" d="M140.1,76.4c0,14,8.7,25.5,19.1,25.5s19.1,5.9,19.1,12.7c0,7.1-8.7,12.7-19.1,12.7s-19.1,11.5-19.1,25.5
		s-8.7,25.5-19.1,25.5c-10.4,0-19.1-5.6-19.1-12.7c0-6.9,2.8-12.7,6.4-12.7c3.6,0,6.4-5.6,6.4-11.7c0-7.4-4.8-13.8-25.5-13.8
		c-20.1,0-25.5,5.1-25.5,14.8c0,5.1,2.8,10.7,6.4,10.7s6.4,5.9,6.4,12.7c0,7.1-8.7,12.7-19.1,12.7s-19.1-11.5-19.1-25.5
		s-8.7-25.5-19.1-25.5C8.7,127.3,0,121.7,0,114.6c0-6.9,8.7-12.7,19.1-12.7c10.4,0,19.1-11.5,19.1-25.5V25.5
		C38.2,11.5,49.7,0,63.7,0h50.9c14,0,25.5,11.5,25.5,25.5V76.4z M114.6,38.2c0-6.4-3.3-12.7-25.7-12.7C67,25.5,63.7,32.6,63.7,39
		c0,6.6,5.1,12,25.5,12C110.3,50.9,114.6,44.6,114.6,38.2z M114.6,89.1c0-6.4-3.3-12.7-25.7-12.7c-21.9,0-25.2,7.1-25.2,13.5
		c0,6.6,5.1,12,25.5,12C110.3,101.9,114.6,95.5,114.6,89.1z"/>
</g>
</svg>
