<?xml version="1.0" encoding="utf-8"?>
<!-- Generator: Adobe Illustrator 19.2.1, SVG Export Plug-In . SVG Version: 6.00 Build 0)  -->
<!DOCTYPE svg PUBLIC "-//W3C//DTD SVG 1.1//EN" "http://www.w3.org/Graphics/SVG/1.1/DTD/svg11.dtd">
<svg version="1.1" id="Layer_1" xmlns="http://www.w3.org/2000/svg" xmlns:xlink="http://www.w3.org/1999/xlink" x="0px" y="0px"
	 viewBox="0 0 162.9 198" style="enable-background:new 0 0 162.9 198;" xml:space="preserve">
<style type="text/css">
	.st0{fill:#F9F9F9;}
</style>
<g>
	<path class="st0" d="M150.4,18.3c0,9.5-1,14-7,30.6c5,4.5,6.3,5,14,5l-7.8,11.5l-24.8,6.5c-3,1-5.8,2.3-8.3,4.3
		c-6,4.5-9,8.8-14.5,20.8l15.3,41.9l41.9,45.1l3.8,14h-5.3c-12,0-20.1-2.8-27.1-9.5L110,168.7l-69.2-34.3l-17.5-3
		c-7-1.3-11.5-4-23.3-14.3c11.5-12.8,14.5-15.3,22.6-17.5l38.8-11.3L88,67.4l22.6-14c5.3-3.5,10-7.5,14-11.8c4.5-5,6-8.3,8-16.3
		L122.1,2.8c4-1.5,8.5-2.8,10.8-2.8C143.9,0,150.4,6.8,150.4,18.3z M45.6,109.3c2,2.5,7,4.3,8.5,4.3c1.8,0,4-0.5,7-1.8v-4.3
		c-5.3-4.3-8.3-5-11.3-4.3C49.9,103.3,47.9,106.3,45.6,109.3z M74.9,108.3v6c3.3,3.8,4.3,4.5,9.5,6l2.5-2.5v-3.5
		c-2.3-1.8-2.5-2.5-3.5-6H74.9z M92.2,102.3l-3.5,5.3c1.8,1.8,2.3,2.5,4.3,6l1.8-1.8h6v-2.5L97,99.8L92.2,102.3z"/>
</g>
</svg>
