<?xml version="1.0" encoding="utf-8"?>
<!-- Generator: Adobe Illustrator 20.0.0, SVG Export Plug-In . SVG Version: 6.00 Build 0)  -->
<svg version="1.1" id="Layer_1" xmlns="http://www.w3.org/2000/svg" xmlns:xlink="http://www.w3.org/1999/xlink" x="0px" y="0px"
	 viewBox="0 0 138.7 178.3" style="enable-background:new 0 0 138.7 178.3;" xml:space="preserve">
<style type="text/css">
	.st0{fill:#181819;}
</style>
<g>
	<path class="st0" d="M121.4,142.7c-23.6,20.4-55.3,35.5-74.5,35.5c-10.1,0-15.7-4.7-28-24.2c-2.8-4.4-4.4-9.1-4.7-13.8
		c0,0,0-2.5,0.6-3.5l6-18.2l6.9-66c0.3-3.5-1.9-7.5-6.6-11.6C4.4,25.5,0,20.1,0,15.4C0,8.5,12.9,0,26.4,0c6,0,11.6,1.9,22,7.2
		c0.6,14.5,0,25.2-1.3,32.4c-2.8,14.1-4.7,25.5-4.7,28c0,4.4,3.1,8.2,10.7,12.3c17.3-6.6,23.3-15.1,35.2-15.1
		c9.4,0,16.4,3.1,25.5,11.3c15.1,14.1,24.8,29.6,24.8,40.6C138.7,123.9,133,132.4,121.4,142.7z M84.3,80.2c-9.1,0-17,8.2-17,17.6
		c0,8.2,1.3,8.2,2.8,26.1l-11.9,7.5l-8.5,2.2l-5.3,6.3c14.1,10.7,23.3,10.1,28.6,6.3c15.4-11,27.4-32.4,27.4-48.7
		C100.3,88,93.1,80.2,84.3,80.2z M113.2,87.7l-5,6.3l-7.9,28.9c-0.6,2.8-6.3,10.4-16,21.7c-1.6,1.6-3.5,4.1-6,7.9
		c7.5,7.2,14.1,6,19.2,3.1c16.4-9.7,30.2-30.8,30.2-46.2C127.7,100.6,123.6,94.6,113.2,87.7z"/>
</g>
</svg>
