<?xml version="1.0" encoding="utf-8"?>
<!-- Generator: Adobe Illustrator 20.0.0, SVG Export Plug-In . SVG Version: 6.00 Build 0)  -->
<svg version="1.1" id="Layer_1" xmlns="http://www.w3.org/2000/svg" xmlns:xlink="http://www.w3.org/1999/xlink" x="0px" y="0px"
	 viewBox="0 0 483.8 513.2" style="enable-background:new 0 0 483.8 513.2;" xml:space="preserve">
<style type="text/css">
	.st0{fill:#181819;}
</style>
<g>
	<path class="st0" d="M362.7,195.6c-24.8,0-45.1-19.7-45.1-45.1c0-10.8,14-14.6,14-26c0-12.1-14-15.2-14-26.7
		c0-4.4,77.5-7.6-8.3-8.3c-10.8,0.6-14.6-14-26-14c-12.1,0-15.2,14-26.7,14c-3.2,0-5.7,0-8.9-0.6c0.6,3.2,0.6,5.7,0.6,8.9
		c0,24.8-19.7,45.1-44.5,45.1c-5.1,0-8.3-59.1-8.3,7.6c0,11.4-14,15.2-14,26.7s14,15.2,14,26.7c0,10.8-14,14.6-14,26
		c0,12.1,14,15.2,14,26.7c0,24.8-19.7,45.1-45.1,45.1c-4.4,0-7.6-59.1-7.6,7.6c0,11.4-14.6,15.2-14.6,26.7
		c0,11.4,14.6,15.2,14.6,26.7c0,10.8-14.6,14.6-14.6,26c0,12.1,14.6,15.2,14.6,26.7c0,4.4-59.1,7.6,7.6,8.3c12.7-0.6,13.3,14,26,14
		c11.4,0,15.2-14,27.3-14c3.2,0,5.7,0,8.9,0.6c-0.6-3.2-1.3-5.7-1.3-8.9c0-24.8,20.3-45.1,45.1-45.1c3.2,0,5.7,0.6,8.9,1.3
		c-0.6-3.2-0.6-5.7-0.6-8.9c0-24.8,19.7-45.1,44.5-45.1s45.1,19.7,45.1,45.1c0,24.8-20.3,44.5-45.1,44.5c-3.2,0-5.7,0-8.9-0.6
		c0.6,3.2,1.3,5.7,1.3,8.9c0,24.8-20.3,45.1-45.1,45.1c-3.2,0-5.7-0.6-8.9-1.3c0.6,3.2,0.6,5.7,0.6,8.9c0,24.8-19.7,45.1-44.5,45.1
		c-11.4,0-15.2-14-26.7-14c-11.4,0-15.2,14-26.7,14c-10.8,0-14.6-14-26-14c-12.1,0-15.2,14-26.7,14c-24.8,0-45.1-19.7-45.1-45.1
		c0-4.4,59.1-7.6-7.6-7.6C20.3,460.5,0,440.2,0,415.4c0-11.4,14-14.6,14-26.7c0-11.4-14-15.2-14-26c0-11.4,14-15.2,14-26.7
		c0-11.4-14-15.2-14-26.7c0-10.8,14-14.6,14-26c0-12.1-14-15.2-14-26.7c0-24.8,19.7-45.1,45.1-45.1c4.4,0,7.6,59.1,7.6-7.6
		c0-11.4,14.6-15.2,14.6-26.7S52.7,162,52.7,150.5c0-24.8,20.3-44.5,45.1-44.5c5.1-0.6,7.6,59.1,8.3-8.3
		c-0.6-24.8,19.7-45.1,44.5-45.1c8.9,0,12.7,8.3,19.7,12.1c1.3-90.8,7.6-46.4,15.9-0.6c5.7-4.4,10.2-11.4,17.8-11.4
		c2.5,0,5.7,0.6,8.9,1.3c-0.6-3.2-1.3-6.4-1.3-8.9c0-25.4,20.3-45.1,45.1-45.1c11.4,0,14.6,14,26.7,14c11.4,0,15.2-14,26-14
		c11.4,0,15.2,14,26.7,14s15.2-14,26.7-14c24.8,0,44.5,21,44.5,45.1c0,8.3-7.6,12.1-11.4,18.4c156.2,1.9,70.5,10.2,3.2,20.3
		c4.4,3.8,8.3,7.6,8.3,14c0,11.4-14,14.6-14,26.7c0,11.4,14,15.2,14.6,26C407.8,175.9,387.4,195.6,362.7,195.6z M96.5,132.1
		c-10.2,0-18.4,8.3-18.4,18.4c0,11.4,14,15.2,14,26.7s-14,15.2-14,26.7c0,290.3-14,34.3-34.3,34.3c-10.2,0-18.4,8.3-18.4,18.4
		c0,11.4,14,14.6,14,26.7c0,11.4-14,14.6-14,26c0,11.4,14,15.2,14,26.7c0,11.4-14,15.2-14,26.7c0,11.4,14,14.6,14,26
		c0,12.1-14,15.2-14,26.7c0,10.2,8.3,18.4,18.4,18.4c25.4,0,71.1-11.4,71.1-18.4c0-11.4-14-14.6-14-26.7c0-11.4,14-15.2,14-26
		c0-11.4-14-15.2-14-26.7c0-11.4,14-15.2,14-26.7l1.3-111.2C111.2,168.3,104.2,132.1,96.5,132.1z M202.6,449.7
		c-11.4,0-15.2,14.6-26.7,14.6c-11.4,0-15.2-14.6-26.7-14.6c-25.4,0-71.1,11.4-71.1,18.4c0,10.2,8.3,18.4,18.4,18.4
		c11.4,0,14.6-14,26.7-14c11.4,0,14.6,14,26,14c11.4,0,15.2-14,26.7-14c11.4,0,15.2,14,26.7,14c10.2,0,18.4-8.3,18.4-18.4
		C221,458.6,212.8,449.7,202.6,449.7z M149.9,79.4c-10.2,0-18.4,8.3-18.4,18.4l-1.3,111.8c5.1,29.2,12.1,65.4,19.7,65.4
		c10.2,0,18.4-8.3,18.4-18.4c0-11.4-14-14.6-14-26.7c0-11.4,14-14.6,14-26s-14-15.2-14-26.7s14-15.2,14.6-26.7V91.5
		C162.6,87,158.2,79.4,149.9,79.4z M203.3,79.4c-5.7,0-9.5,3.2-13.3,7c4.4,17.1,8.3,29.9,13.3,29.9c10.2,0,18.4-8.3,18.4-18.4
		S213.4,79.4,203.3,79.4z M255.3,397c-10.2,0-18.4,8.3-18.4,18.4c0,10.2,8.3,18.4,18.4,18.4c10.2,0,18.4-8.3,18.4-18.4
		C273.8,405.2,265.5,397,255.3,397z M362,26.7c-11.4,0-15.2,14-26.7,14c-11.4,0-15.2-14-26.7-14c-11.4,0-14.6,14-26,14
		c-12.1,0-15.2-14-26.7-14c-10.2,0-18.4,8.3-18.4,18.4c0,9.5,8.3,18.4,18.4,18.4c11.4,0,14.6-14.6,26.7-14.6
		c11.4,0,15.2,14.6,26,14.6h59.7c4.4-6.4,12.1-10.2,12.1-18.4C380.5,34.9,372.2,26.7,362,26.7z M308.7,344.3
		c-10.2,0-18.4,8.3-18.4,18.4c0,9.5,8.9,18.4,18.4,18.4c10.2,0,18.4-8.9,19.1-18.4C327.7,352.5,318.9,344.3,308.7,344.3z
		 M365.9,124.5c0-12.1,14.6-15.2,14.6-26.7c0-4.4-2.5-7.6-5.1-10.8c-18.4,3.8-32.4,7-31.8,10.8c-0.6,11.4,14,14.6,14,26.7
		c0,11.4-14,14.6-14,26c0,10.2,8.3,18.4,18.4,18.4c10.2,0,18.4-8.3,18.4-18.4C380.5,139.7,365.9,135.9,365.9,124.5z"/>
</g>
</svg>
