<?xml version="1.0" encoding="utf-8"?>
<!-- Generator: Adobe Illustrator 19.2.1, SVG Export Plug-In . SVG Version: 6.00 Build 0)  -->
<!DOCTYPE svg PUBLIC "-//W3C//DTD SVG 1.1//EN" "http://www.w3.org/Graphics/SVG/1.1/DTD/svg11.dtd">
<svg version="1.1" id="Layer_1" xmlns="http://www.w3.org/2000/svg" xmlns:xlink="http://www.w3.org/1999/xlink" x="0px" y="0px"
	 viewBox="0 0 203.7 216" style="enable-background:new 0 0 203.7 216;" xml:space="preserve">
<style type="text/css">
	.st0{fill:#F9F9F9;}
</style>
<g>
	<path class="st0" d="M152.7,82.3c-10.4,0-19-8.3-19-19c0-4.5,5.9-6.1,5.9-11c0-5.1-5.9-6.4-5.9-11.2c0-1.9,32.6-3.2-3.5-3.5
		c-4.5,0.3-6.1-5.9-11-5.9c-5.1,0-6.4,5.9-11.2,5.9c-1.3,0-2.4,0-3.7-0.3c0.3,1.3,0.3,2.4,0.3,3.7c0,10.4-8.3,19-18.7,19
		c-2.1,0-3.5-24.9-3.5,3.2c0,4.8-5.9,6.4-5.9,11.2s5.9,6.4,5.9,11.2c0,4.5-5.9,6.1-5.9,11c0,5.1,5.9,6.4,5.9,11.2
		c0,10.4-8.3,19-19,19c-1.9,0-3.2-24.9-3.2,3.2c0,4.8-6.1,6.4-6.1,11.2s6.1,6.4,6.1,11.2c0,4.5-6.1,6.1-6.1,11
		c0,5.1,6.1,6.4,6.1,11.2c0,1.9-24.9,3.2,3.2,3.5c5.3-0.3,5.6,5.9,11,5.9c4.8,0,6.4-5.9,11.5-5.9c1.3,0,2.4,0,3.7,0.3
		c-0.3-1.3-0.5-2.4-0.5-3.7c0-10.4,8.6-19,19-19c1.3,0,2.4,0.3,3.7,0.5c-0.3-1.3-0.3-2.4-0.3-3.7c0-10.4,8.3-19,18.7-19
		c10.4,0,19,8.3,19,19c0,10.4-8.6,18.7-19,18.7c-1.3,0-2.4,0-3.7-0.3c0.3,1.3,0.5,2.4,0.5,3.7c0,10.4-8.6,19-19,19
		c-1.3,0-2.4-0.3-3.7-0.5c0.3,1.3,0.3,2.4,0.3,3.7c0,10.4-8.3,19-18.7,19c-4.8,0-6.4-5.9-11.2-5.9s-6.4,5.9-11.2,5.9
		c-4.5,0-6.1-5.9-11-5.9c-5.1,0-6.4,5.9-11.2,5.9c-10.4,0-19-8.3-19-19c0-1.9,24.9-3.2-3.2-3.2c-10.4,0-19-8.6-19-19
		c0-4.8,5.9-6.1,5.9-11.2c0-4.8-5.9-6.4-5.9-11c0-4.8,5.9-6.4,5.9-11.2S0,135,0,130.2c0-4.5,5.9-6.1,5.9-11c0-5.1-5.9-6.4-5.9-11.2
		c0-10.4,8.3-19,19-19c1.9,0,3.2,24.9,3.2-3.2c0-4.8,6.1-6.4,6.1-11.2s-6.1-6.4-6.1-11.2c0-10.4,8.6-18.7,19-18.7
		c2.1-0.3,3.2,24.9,3.5-3.5c-0.3-10.4,8.3-19,18.7-19c3.7,0,5.3,3.5,8.3,5.1C72.2-11,74.9,7.8,78.3,27c2.4-1.9,4.3-4.8,7.5-4.8
		c1.1,0,2.4,0.3,3.7,0.5C89.3,21.4,89,20.1,89,19c0-10.7,8.6-19,19-19c4.8,0,6.1,5.9,11.2,5.9c4.8,0,6.4-5.9,11-5.9
		c4.8,0,6.4,5.9,11.2,5.9S147.9,0,152.7,0c10.4,0,18.7,8.8,18.7,19c0,3.5-3.2,5.1-4.8,7.8c65.8,0.8,29.7,4.3,1.3,8.6
		c1.9,1.6,3.5,3.2,3.5,5.9c0,4.8-5.9,6.1-5.9,11.2c0,4.8,5.9,6.4,6.1,11C171.6,74.1,163.1,82.3,152.7,82.3z M40.6,55.6
		c-4.3,0-7.8,3.5-7.8,7.8c0,4.8,5.9,6.4,5.9,11.2s-5.9,6.4-5.9,11.2c0,122.2-5.9,14.4-14.4,14.4c-4.3,0-7.8,3.5-7.8,7.8
		c0,4.8,5.9,6.1,5.9,11.2c0,4.8-5.9,6.1-5.9,11s5.9,6.4,5.9,11.2s-5.9,6.4-5.9,11.2s5.9,6.1,5.9,11c0,5.1-5.9,6.4-5.9,11.2
		c0,4.3,3.5,7.8,7.8,7.8c10.7,0,29.9-4.8,29.9-7.8c0-4.8-5.9-6.1-5.9-11.2c0-4.8,5.9-6.4,5.9-11c0-4.8-5.9-6.4-5.9-11.2
		s5.9-6.4,5.9-11.2l0.5-46.8C46.8,70.9,43.8,55.6,40.6,55.6z M85.3,189.3c-4.8,0-6.4,6.1-11.2,6.1s-6.4-6.1-11.2-6.1
		c-10.7,0-29.9,4.8-29.9,7.8c0,4.3,3.5,7.8,7.8,7.8c4.8,0,6.1-5.9,11.2-5.9c4.8,0,6.1,5.9,11,5.9s6.4-5.9,11.2-5.9s6.4,5.9,11.2,5.9
		c4.3,0,7.8-3.5,7.8-7.8C93,193,89.6,189.3,85.3,189.3z M63.1,33.4c-4.3,0-7.8,3.5-7.8,7.8l-0.5,47.1c2.1,12.3,5.1,27.5,8.3,27.5
		c4.3,0,7.8-3.5,7.8-7.8c0-4.8-5.9-6.1-5.9-11.2c0-4.8,5.9-6.1,5.9-11c0-4.8-5.9-6.4-5.9-11.2s5.9-6.4,6.1-11.2V38.5
		C68.4,36.6,66.6,33.4,63.1,33.4z M85.6,33.4c-2.4,0-4,1.3-5.6,2.9c1.9,7.2,3.5,12.6,5.6,12.6c4.3,0,7.8-3.5,7.8-7.8
		S89.8,33.4,85.6,33.4z M107.5,167.1c-4.3,0-7.8,3.5-7.8,7.8s3.5,7.8,7.8,7.8c4.3,0,7.8-3.5,7.8-7.8S111.8,167.1,107.5,167.1z
		 M152.4,11.2c-4.8,0-6.4,5.9-11.2,5.9c-4.8,0-6.4-5.9-11.2-5.9s-6.1,5.9-11,5.9c-5.1,0-6.4-5.9-11.2-5.9c-4.3,0-7.8,3.5-7.8,7.8
		c0,4,3.5,7.8,7.8,7.8c4.8,0,6.1-6.1,11.2-6.1c4.8,0,6.4,6.1,11,6.1h25.1c1.9-2.7,5.1-4.3,5.1-7.8C160.2,14.7,156.7,11.2,152.4,11.2
		z M129.9,144.9c-4.3,0-7.8,3.5-7.8,7.8c0,4,3.7,7.8,7.8,7.8c4.3,0,7.8-3.7,8-7.8C138,148.4,134.2,144.9,129.9,144.9z M154,52.4
		c0-5.1,6.1-6.4,6.1-11.2c0-1.9-1.1-3.2-2.1-4.5c-7.8,1.6-13.6,2.9-13.4,4.5c-0.3,4.8,5.9,6.1,5.9,11.2c0,4.8-5.9,6.1-5.9,11
		c0,4.3,3.5,7.8,7.8,7.8c4.3,0,7.8-3.5,7.8-7.8C160.2,58.8,154,57.2,154,52.4z"/>
</g>
</svg>
