<?xml version="1.0" encoding="utf-8"?>
<!-- Generator: Adobe Illustrator 19.2.1, SVG Export Plug-In . SVG Version: 6.00 Build 0)  -->
<!DOCTYPE svg PUBLIC "-//W3C//DTD SVG 1.1//EN" "http://www.w3.org/Graphics/SVG/1.1/DTD/svg11.dtd">
<svg version="1.1" id="Layer_1" xmlns="http://www.w3.org/2000/svg" xmlns:xlink="http://www.w3.org/1999/xlink" x="0px" y="0px"
	 viewBox="0 0 750.6 750.6" style="enable-background:new 0 0 750.6 750.6;" xml:space="preserve">
<style type="text/css">
	.st0{opacity:0.1;}
	.st1{fill:none;stroke:#C4C4C4;stroke-miterlimit:10;}
</style>
<g class="st0">
	<line class="st1" x1="46.4" y1="0" x2="46.4" y2="750.6"/>
	<line class="st1" x1="112.1" y1="0" x2="112.1" y2="750.6"/>
	<line class="st1" x1="177.9" y1="0" x2="177.9" y2="750.6"/>
	<line class="st1" x1="243.7" y1="0" x2="243.7" y2="750.6"/>
	<line class="st1" x1="309.5" y1="0" x2="309.5" y2="750.6"/>
	<line class="st1" x1="375.3" y1="0" x2="375.3" y2="750.6"/>
	<line class="st1" x1="441.1" y1="0" x2="441.1" y2="750.6"/>
	<line class="st1" x1="506.8" y1="0" x2="506.8" y2="750.6"/>
	<line class="st1" x1="572.6" y1="0" x2="572.6" y2="750.6"/>
	<line class="st1" x1="638.4" y1="0" x2="638.4" y2="750.6"/>
	<line class="st1" x1="704.2" y1="0" x2="704.2" y2="750.6"/>
	<line class="st1" x1="750.6" y1="46.4" x2="0" y2="46.4"/>
	<line class="st1" x1="750.6" y1="112.1" x2="0" y2="112.1"/>
	<line class="st1" x1="750.6" y1="177.9" x2="0" y2="177.9"/>
	<line class="st1" x1="750.6" y1="243.7" x2="0" y2="243.7"/>
	<line class="st1" x1="750.6" y1="309.5" x2="0" y2="309.5"/>
	<line class="st1" x1="750.6" y1="375.3" x2="0" y2="375.3"/>
	<line class="st1" x1="750.6" y1="441.1" x2="0" y2="441.1"/>
	<line class="st1" x1="750.6" y1="506.8" x2="0" y2="506.8"/>
	<line class="st1" x1="750.6" y1="572.6" x2="0" y2="572.6"/>
	<line class="st1" x1="750.6" y1="638.4" x2="0" y2="638.4"/>
	<line class="st1" x1="750.6" y1="704.2" x2="0" y2="704.2"/>
</g>
</svg>
