<?xml version="1.0" encoding="utf-8"?>
<!-- Generator: Adobe Illustrator 20.0.0, SVG Export Plug-In . SVG Version: 6.00 Build 0)  -->
<svg version="1.1" id="Layer_1" xmlns="http://www.w3.org/2000/svg" xmlns:xlink="http://www.w3.org/1999/xlink" x="0px" y="0px"
	 viewBox="0 0 336.3 324.3" style="enable-background:new 0 0 336.3 324.3;" xml:space="preserve">
<style type="text/css">
	.st0{fill:none;stroke:#181819;stroke-width:3;stroke-miterlimit:10;}
</style>
<g>
	<path class="st0" d="M311.8,72c-2.8,0.3-4.5-32.1-4.5,4.5c0,6.2-7.6,7.9-7.6,14.5c0,6.2,7.6,8.3,7.6,14.1
		c0,13.8-10.7,24.5-24.5,24.5c-2.4,0-4.1-32.1-4.1,4.5c0,5.9-7.9,7.9-7.9,14.1c0,6.6,7.9,8.3,7.9,14.5c0,6.2-7.9,7.6-7.9,14.5
		c0,6.2,7.9,8.3,7.9,14.1c0,13.8-11,24.5-24.5,24.5c-2.8,0-4.1-32.1-4.5,4.5c0.3,5.9-7.6,7.9-7.6,14.1c0,6.6,7.9,8.3,7.6,14.5
		c0.3,2.4-32.1,4.1,4.5,4.5c13.5-0.3,24.5,10.7,24.5,24.1c0,13.5-11,24.5-24.5,24.5c-6.2,0-7.9-7.6-14.5-7.6
		c-6.2,0-8.3,7.6-14.1,7.6c-6.2,0-8.3-7.6-14.5-7.6c-6.2,0-8.3,7.6-14.5,7.6c-4.5,0-6.6-4.5-10.3-6.6c-1,49.7-4.1,25.2-8.6,0.7
		c-3.1,2.1-5.5,5.9-9.7,5.9c-13.5,0-24.5-10.7-24.5-24.5c0-13.5,11-24.1,24.5-24.1c2.8-0.3,4.1,32.1,4.5-4.5
		c-0.3-6.2,7.6-7.9,7.6-14.5c0-6.2-7.6-7.9-7.6-14.1c0-13.5,10.7-24.5,24.1-24.5c2.8,0,4.5,32.1,4.5-4.5c0-0.7,3.4-1.4,6.6-2.1
		l-0.3-2.1c-2.4,0-5.9,0-10.7,0c-5.9,0-7.9-7.9-14.1-7.9c-6.6,0-8.3,7.9-14.5,7.9c-5.9,0-7.9-7.9-14.5-7.9c-6.2,0-8.3,7.9-14.1,7.9
		c-2.8,0-4.5-32.1-4.5,4.1c0,13.5-10.7,24.5-24.5,24.5c-2.4,0-4.1-32.1-4.1,4.5c0,5.9-7.9,7.9-7.9,14.1c0,6.6,7.9,8.3,7.9,14.5
		c0,2.4-32.1,4.5,4.1,4.5c13.5,0,24.5,10.7,24.5,24.1c0,13.5-10.7,24.5-24.5,24.5c-5.9,0-7.9-7.6-14.1-7.6c-6.6,0-8.3,7.6-14.5,7.6
		c-5.9,0-7.9-7.6-14.5-7.6c-6.2,0-8.3,7.6-14.1,7.6c-4.8,0-6.9-4.5-10.7-6.6c-0.7,49.7-4.1,25.2-8.6,0.7c-3.1,2.1-5.5,5.9-9.7,5.9
		C10.7,302,0,291,0,277.6c0-13.1,10.7-24.1,24.1-24.1c2.8-0.3,4.5,32.1,4.5-4.5c0-6.2,7.6-7.9,7.6-14.5c0-6.2-7.6-8.3-7.6-14.1
		c0-13.8,10.7-24.5,24.5-24.5c2.4,0,4.1,32.1,4.1-4.5c0-5.9,7.9-7.9,7.9-14.1c0-6.6-7.9-8.3-7.9-14.5c0-6.2,7.9-7.6,7.9-14.5
		c0-6.2-7.9-8.3-7.9-14.1c0-13.8,11-24.5,24.5-24.5c2.8,0,4.1,32.1,4.5-4.5c-0.3-5.9,7.6-7.9,7.6-14.1c0-6.6-7.9-8.3-7.6-14.5
		c-0.3-2.4,32.1-4.5-4.5-4.5c-13.5,0-24.5-10.7-24.5-24.1s11-24.5,24.5-24.5c6.2,0,7.9,7.6,14.5,7.6c6.2,0,8.3-7.6,14.1-7.6
		c6.2,0,8.3,7.6,14.5,7.6c6.2,0,8.3-7.6,14.5-7.6c4.5,0,6.6,4.5,10.3,6.6c1-49.7,4.1-25.2,8.6-0.7c3.1-2.1,5.5-5.9,9.7-5.9
		c13.5,0,24.5,10.7,24.5,24.5c0,13.5-11,24.1-24.5,24.1c-2.8,0.3-4.1-32.1-4.5,4.5c0.3,6.2-7.6,7.9-7.6,14.5c0,6.2,7.6,7.9,7.6,14.1
		c0,13.5-10.7,24.5-24.1,24.5c-2.8,0-4.5-32.1-4.5,4.5c0,0.7-3.4,1.4-6.6,2.1l0.3,2.1c2.4,0,5.9,0,10.7,0c5.9,0,7.9,7.9,14.1,7.9
		c6.6,0,8.3-7.9,14.5-7.9c5.9,0,7.9,7.9,14.5,7.9c6.2,0,8.3-7.9,14.1-7.9c2.8,0,4.5,32.1,4.5-4.1c0-13.5,10.7-24.5,24.5-24.5
		c2.4,0,4.1,32.1,4.1-4.5c0-5.9,7.9-7.9,7.9-14.1c0-6.6-7.9-8.3-7.9-14.5c0-2.4,32.1-4.5-4.1-4.5c-13.5,0-24.5-10.7-24.5-24.1
		s10.7-24.5,24.5-24.5c5.9,0,7.9,7.6,14.1,7.6c6.6,0,8.3-7.6,14.5-7.6c5.9,0,7.9,7.6,14.5,7.6c6.2,0,8.3-7.6,14.1-7.6
		c4.8,0,6.9,4.5,10.7,6.6c0.7-49.7,4.1-25.2,8.6-0.7c3.1-2.1,5.5-5.9,9.7-5.9c13.5,0,24.1,10.7,24.5,24.5
		C336.3,61.3,325.2,72.4,311.8,72z M23.5,267.6c-5.5,0-10,4.8-10,10c0,5.5,4.5,10,10,10c3.1,0,5.2-1.7,7.2-3.8
		C28.3,274.8,26.2,267.6,23.5,267.6z M52.8,210.3c-5.5,0-10,4.5-10,10c0,6.2,7.6,7.9,7.6,14.1c0,6.6-7.6,8.3-7.6,14.5l-0.3,13.5
		c6.9-1,14.8-2.8,23.5-4.5C62.4,242,57.9,210.3,52.8,210.3z M110,267.6l-67.6-1v14.8c3.4,2.1,5.5,6.2,10.3,6.2
		c6.2,0,7.9-7.6,14.1-7.6c6.6,0,8.3,7.6,14.5,7.6s7.9-7.6,14.5-7.6c6.2,0,7.9,7.6,14.1,7.6c5.5,0,10-4.5,10.3-10
		C120.4,272.4,115.5,267.6,110,267.6z M90.7,152.4c0,0-9-0.3-12.4-0.3c-2.1,3.8-6.9,5.9-6.9,10.7c0,5.9,7.6,7.9,7.6,14.5
		c0,6.2-7.6,8.3-7.6,14.1l-1,65.5c11.4-2.4,21-4.8,21-7.9c0-6.2-7.6-7.9-7.6-14.5c0-6.2,7.6-8.3,7.6-14.1l0.7-60.7L90.7,152.4z
		 M139,37.9c-6.2-0.7-8.3,7.6-14.5,7.6c-6.2,0-8.3-7.6-14.5-7.6s-7.9,7.6-14.1,7.6c-6.6,0-8.3-9-14.5-7.6c-5.5,1-10,4.5-10,10
		c0,5.2,4.5,10,10,10l67.6,1V44.1C145.5,42,143.5,38.6,139,37.9z M81.4,124.1c-5.5-0.3-10,4.5-10,10c0,5.2,5.5,7.2,7.2,11.7
		l10.7-1.7C86.9,133,84.2,123.7,81.4,124.1z M99.7,152.4c0,0-0.3,9.7-0.3,13.5c2.8,16.2,6.6,35.9,10.7,35.5c5.5,0.3,10-4.5,10.3-10
		v-38.6L99.7,152.4z M100,76.5c0,6.2,7.9,7.9,7.9,14.5c0,6.2-7.9,8.3-7.9,14.1v36.6c11-2.1,20-4.8,20.3-7.6l1-65.5
		C109.7,71,100,73.4,100,76.5z M125.9,67.5c3.1,15.9,7.6,47.6,13.1,47.6c5.2,0,10-4.5,10-10c0-5.9-7.9-7.9-7.9-14.1
		c0-6.6,7.9-8.3,7.9-14.5V63C142.8,64.4,134.2,65.8,125.9,67.5z M196.2,152.7c-5.9,0-7.9,7.6-14.1,7.6c-6.6,0-8.3-7.6-14.5-7.6
		c-5.9,0-7.9,7.6-14.5,7.6c-6.2,0-8.3-7.6-14.1-7.6h-7.9c2.4,11,4.8,20,7.9,20c5.9,0,7.9-7.6,14.1-7.6c6.6,0,8.3,7.6,14.5,7.6
		c5.9,0,7.9-7.6,14.5-7.6c6.2,0,8.3,7.6,14.1,7.6h7.9C201.8,161.7,199.3,152.7,196.2,152.7z M167.6,267.6c-5.5,0-10,4.8-10,10
		c0,5.5,4.5,10,10,10c3.1,0,4.8-1.7,6.9-3.8C172.4,274.8,170,267.6,167.6,267.6z M167.6,37.9c-3.1,0-4.8,1.7-6.9,3.8
		c2.1,9,4.5,16.2,6.9,16.2c5.5,0,10-4.8,10-10C177.6,42.3,173.1,37.5,167.6,37.9z M196.2,210.3c-5.2-0.3-10,4.5-10,10
		c0,5.9,7.9,7.9,7.9,14.1c0,6.6-7.9,8.3-7.9,14.5v13.5c6.2-1.4,14.8-2.8,23.1-4.5C206.2,242,201.8,210,196.2,210.3z M253.8,267.6
		l-67.6-1v14.8c3.4,2.1,5.5,6.2,10,6.2c6.2,0,8.3-7.6,14.5-7.6c6.2,0,8.3,7.6,14.5,7.6s7.9-7.6,14.1-7.6c6.6,0,8.3,7.6,14.5,7.6
		c5.5,0,10-4.5,10-10C263.8,272.4,259.3,267.6,253.8,267.6z M214.9,191.3l-1,65.5c11.7-2.4,21.4-4.8,21.4-7.9
		c0-6.2-7.9-7.9-7.9-14.5c0-6.2,7.9-8.3,7.9-14.1v-36.6C224.2,185.8,215.2,188.6,214.9,191.3z M225.2,124.1c-5.5,0-10,4.5-10.3,10
		v38.6l20.7,0.3l0.3-13.5C233.1,143.4,229.3,124.1,225.2,124.1z M282.5,37.9c-6.2-0.7-7.9,7.6-14.1,7.6c-6.6,0-8.3-7.6-14.5-7.6
		s-7.9,7.6-14.5,7.6c-6.2,0-7.9-9-14.1-7.6c-5.5,1-10,4.5-10,10c0,5.5,4.5,10,10,10l67.6,1V44.1C289.4,42,287.3,38.2,282.5,37.9z
		 M243.8,76.5c0,6.2,7.6,7.9,7.6,14.5c0,6.2-7.6,8.3-7.6,14.1l-0.7,60.7l1.4,7.2l12.4,0.3c2.1-3.8,6.9-5.9,6.9-10.7
		c0-6.2-7.6-7.9-7.6-14.5c0-6.2,7.6-8.3,7.6-14.1l1-65.5C253.5,71,243.8,73.4,243.8,76.5z M256.6,179.6l-10.7,1.7
		c2.4,11,5.2,20.3,7.9,20c5.5,0.3,10-4.5,10-10C263.8,186.2,258.3,184.1,256.6,179.6z M269.4,67.5c3.4,15.9,7.9,47.9,13.1,47.6
		c5.5,0.3,10-4.5,10-10c0-6.2-7.6-7.9-7.6-14.1c0-6.6,7.6-8.3,7.6-14.5l0.3-13.5C286.6,64.4,278,65.8,269.4,67.5z M311.4,37.9
		c-3.1,0-5.2,1.7-7.2,3.8c2.4,9,4.5,16.2,7.2,16.2c5.5,0,10-4.8,10-10C321.4,42.3,316.9,37.5,311.4,37.9z"/>
</g>
</svg>
