<?xml version="1.0" encoding="utf-8"?>
<!-- Generator: Adobe Illustrator 19.2.1, SVG Export Plug-In . SVG Version: 6.00 Build 0)  -->
<!DOCTYPE svg PUBLIC "-//W3C//DTD SVG 1.1//EN" "http://www.w3.org/Graphics/SVG/1.1/DTD/svg11.dtd">
<svg version="1.1" id="Layer_1" xmlns="http://www.w3.org/2000/svg" xmlns:xlink="http://www.w3.org/1999/xlink" x="0px" y="0px"
	 viewBox="0 0 117.1 112.6" style="enable-background:new 0 0 117.1 112.6;" xml:space="preserve">
<style type="text/css">
	.st0{fill:#F9F9F9;}
</style>
<g>
	<path class="st0" d="M108.6,24.7c-1,0.1-1.6-11.2-1.6,1.6c0,2.2-2.6,2.8-2.6,5c0,2.2,2.6,2.9,2.6,4.9c0,4.8-3.7,8.5-8.5,8.5
		c-0.8,0-1.4-11.2-1.4,1.6c0,2-2.8,2.8-2.8,4.9c0,2.3,2.8,2.9,2.8,5c0,2.2-2.8,2.6-2.8,5c0,2.2,2.8,2.9,2.8,4.9
		c0,4.8-3.8,8.5-8.5,8.5c-1,0-1.4-11.2-1.6,1.6c0.1,2-2.6,2.8-2.6,4.9c0,2.3,2.8,2.9,2.6,5c0.1,0.8-11.2,1.4,1.6,1.6
		c4.7-0.1,8.5,3.7,8.5,8.4s-3.8,8.5-8.5,8.5c-2.2,0-2.8-2.6-5-2.6c-2.2,0-2.9,2.6-4.9,2.6c-2.2,0-2.9-2.6-5-2.6
		c-2.2,0-2.9,2.6-5,2.6c-1.6,0-2.3-1.6-3.6-2.3c-0.4,17.3-1.4,8.8-3,0.2c-1.1,0.7-1.9,2-3.4,2c-4.7,0-8.5-3.7-8.5-8.5
		c0-4.7,3.8-8.4,8.5-8.4c1-0.1,1.4,11.2,1.6-1.6c-0.1-2.2,2.6-2.8,2.6-5c0-2.2-2.6-2.8-2.6-4.9c0-4.7,3.7-8.5,8.4-8.5
		c1,0,1.6,11.2,1.6-1.6c0-0.2,1.2-0.5,2.3-0.7l-0.1-0.7c-0.8,0-2,0-3.7,0c-2,0-2.8-2.8-4.9-2.8c-2.3,0-2.9,2.8-5,2.8
		c-2,0-2.8-2.8-5-2.8c-2.2,0-2.9,2.8-4.9,2.8c-1,0-1.6-11.2-1.6,1.4c0,4.7-3.7,8.5-8.5,8.5c-0.8,0-1.4-11.2-1.4,1.6
		c0,2-2.8,2.8-2.8,4.9c0,2.3,2.8,2.9,2.8,5c0,0.8-11.2,1.6,1.4,1.6c4.7,0,8.5,3.7,8.5,8.4s-3.7,8.5-8.5,8.5c-2,0-2.8-2.6-4.9-2.6
		c-2.3,0-2.9,2.6-5,2.6c-2,0-2.8-2.6-5-2.6c-2.2,0-2.9,2.6-4.9,2.6c-1.7,0-2.4-1.6-3.7-2.3c-0.2,17.3-1.4,8.8-3,0.2
		c-1.1,0.7-1.9,2-3.4,2c-4.7,0-8.4-3.8-8.4-8.5c0-4.6,3.7-8.4,8.4-8.4c1-0.1,1.6,11.2,1.6-1.6c0-2.2,2.6-2.8,2.6-5
		c0-2.2-2.6-2.9-2.6-4.9c0-4.8,3.7-8.5,8.5-8.5c0.8,0,1.4,11.2,1.4-1.6c0-2,2.8-2.8,2.8-4.9c0-2.3-2.8-2.9-2.8-5
		c0-2.2,2.8-2.6,2.8-5c0-2.2-2.8-2.9-2.8-4.9c0-4.8,3.8-8.5,8.5-8.5c1,0,1.4,11.2,1.6-1.6c-0.1-2,2.6-2.8,2.6-4.9
		c0-2.3-2.8-2.9-2.6-5c-0.1-0.8,11.2-1.6-1.6-1.6c-4.7,0-8.5-3.7-8.5-8.4c0-4.7,3.8-8.5,8.5-8.5c2.2,0,2.8,2.6,5,2.6
		c2.2,0,2.9-2.6,4.9-2.6c2.2,0,2.9,2.6,5,2.6c2.2,0,2.9-2.6,5-2.6c1.6,0,2.3,1.6,3.6,2.3c0.4-17.3,1.4-8.8,3-0.2
		c1.1-0.7,1.9-2,3.4-2c4.7,0,8.5,3.7,8.5,8.5c0,4.7-3.8,8.4-8.5,8.4c-1,0.1-1.4-11.2-1.6,1.6c0.1,2.2-2.6,2.8-2.6,5
		c0,2.2,2.6,2.8,2.6,4.9c0,4.7-3.7,8.5-8.4,8.5c-1,0-1.6-11.2-1.6,1.6c0,0.2-1.2,0.5-2.3,0.7l0.1,0.7c0.8,0,2,0,3.7,0
		c2,0,2.8,2.8,4.9,2.8c2.3,0,2.9-2.8,5-2.8c2,0,2.8,2.8,5,2.8c2.2,0,2.9-2.8,4.9-2.8c1,0,1.6,11.2,1.6-1.4c0-4.7,3.7-8.5,8.5-8.5
		c0.8,0,1.4,11.2,1.4-1.6c0-2,2.8-2.8,2.8-4.9c0-2.3-2.8-2.9-2.8-5c0-0.8,11.2-1.6-1.4-1.6c-4.7,0-8.5-3.7-8.5-8.4
		c0-4.7,3.7-8.5,8.5-8.5c2,0,2.8,2.6,4.9,2.6c2.3,0,2.9-2.6,5-2.6c2,0,2.8,2.6,5,2.6c2.2,0,2.9-2.6,4.9-2.6c1.7,0,2.4,1.6,3.7,2.3
		c0.2-17.3,1.4-8.8,3-0.2c1.1-0.7,1.9-2,3.4-2c4.7,0,8.4,3.7,8.5,8.5C117.1,21,113.3,24.8,108.6,24.7z M8.2,92.8
		c-1.9,0-3.5,1.7-3.5,3.5c0,1.9,1.6,3.5,3.5,3.5c1.1,0,1.8-0.6,2.5-1.3C9.9,95.3,9.1,92.8,8.2,92.8z M18.4,72.9
		c-1.9,0-3.5,1.6-3.5,3.5c0,2.2,2.6,2.8,2.6,4.9c0,2.3-2.6,2.9-2.6,5L14.8,91c2.4-0.4,5.2-1,8.2-1.6C21.7,83.9,20.2,72.9,18.4,72.9z
		 M38.3,92.8l-23.5-0.4v5.2c1.2,0.7,1.9,2.2,3.6,2.2c2.2,0,2.8-2.6,4.9-2.6c2.3,0,2.9,2.6,5,2.6c2.2,0,2.8-2.6,5-2.6
		c2.2,0,2.8,2.6,4.9,2.6c1.9,0,3.5-1.6,3.6-3.5C41.9,94.5,40.2,92.8,38.3,92.8z M31.6,52.7c0,0-3.1-0.1-4.3-0.1
		c-0.7,1.3-2.4,2-2.4,3.7c0,2,2.6,2.8,2.6,5c0,2.2-2.6,2.9-2.6,4.9l-0.4,22.8c4-0.8,7.3-1.7,7.3-2.8c0-2.2-2.6-2.8-2.6-5
		c0-2.2,2.6-2.9,2.6-4.9l0.2-21.1L31.6,52.7z M48.4,12.8c-2.2-0.2-2.9,2.6-5,2.6c-2.2,0-2.9-2.6-5-2.6c-2.2,0-2.8,2.6-4.9,2.6
		c-2.3,0-2.9-3.1-5-2.6c-1.9,0.4-3.5,1.6-3.5,3.5c0,1.8,1.6,3.5,3.5,3.5l23.5,0.4V15C50.7,14.2,50,13,48.4,12.8z M28.4,42.8
		c-1.9-0.1-3.5,1.6-3.5,3.5c0,1.8,1.9,2.5,2.5,4.1l3.7-0.6C30.3,46,29.3,42.7,28.4,42.8z M34.7,52.7c0,0-0.1,3.4-0.1,4.7
		c1,5.6,2.3,12.5,3.7,12.4c1.9,0.1,3.5-1.6,3.6-3.5V52.8L34.7,52.7z M34.8,26.3c0,2.2,2.8,2.8,2.8,5c0,2.2-2.8,2.9-2.8,4.9V49
		c3.8-0.7,7-1.7,7.1-2.6l0.4-22.8C38.2,24.3,34.8,25.2,34.8,26.3z M43.9,23.1c1.1,5.5,2.6,16.6,4.6,16.6c1.8,0,3.5-1.6,3.5-3.5
		c0-2-2.8-2.8-2.8-4.9c0-2.3,2.8-2.9,2.8-5v-4.7C49.7,22.1,46.7,22.5,43.9,23.1z M68.4,52.8c-2,0-2.8,2.6-4.9,2.6
		c-2.3,0-2.9-2.6-5-2.6c-2,0-2.8,2.6-5,2.6c-2.2,0-2.9-2.6-4.9-2.6h-2.8c0.8,3.8,1.7,7,2.8,7c2,0,2.8-2.6,4.9-2.6
		c2.3,0,2.9,2.6,5,2.6c2,0,2.8-2.6,5-2.6c2.2,0,2.9,2.6,4.9,2.6h2.8C70.3,55.9,69.4,52.8,68.4,52.8z M58.4,92.8
		c-1.9,0-3.5,1.7-3.5,3.5c0,1.9,1.6,3.5,3.5,3.5c1.1,0,1.7-0.6,2.4-1.3C60.1,95.3,59.2,92.8,58.4,92.8z M58.4,12.8
		c-1.1,0-1.7,0.6-2.4,1.3c0.7,3.1,1.6,5.6,2.4,5.6c1.9,0,3.5-1.7,3.5-3.5C61.9,14.4,60.3,12.7,58.4,12.8z M68.4,72.9
		c-1.8-0.1-3.5,1.6-3.5,3.5c0,2,2.8,2.8,2.8,4.9c0,2.3-2.8,2.9-2.8,5V91c2.2-0.5,5.2-1,8-1.6C71.8,83.9,70.3,72.8,68.4,72.9z
		 M88.4,92.8l-23.5-0.4v5.2c1.2,0.7,1.9,2.2,3.5,2.2c2.2,0,2.9-2.6,5-2.6c2.2,0,2.9,2.6,5,2.6c2.2,0,2.8-2.6,4.9-2.6
		c2.3,0,2.9,2.6,5,2.6c1.9,0,3.5-1.6,3.5-3.5C91.9,94.5,90.4,92.8,88.4,92.8z M74.9,66.3l-0.4,22.8c4.1-0.8,7.4-1.7,7.4-2.8
		c0-2.2-2.8-2.8-2.8-5c0-2.2,2.8-2.9,2.8-4.9V63.6C78.1,64.4,75,65.3,74.9,66.3z M78.5,42.8c-1.9,0-3.5,1.6-3.6,3.5v13.5l7.2,0.1
		l0.1-4.7C81.2,49.6,79.9,42.8,78.5,42.8z M98.4,12.8c-2.2-0.2-2.8,2.6-4.9,2.6c-2.3,0-2.9-2.6-5-2.6c-2.2,0-2.8,2.6-5,2.6
		c-2.2,0-2.8-3.1-4.9-2.6c-1.9,0.4-3.5,1.6-3.5,3.5s1.6,3.5,3.5,3.5l23.5,0.4V15C100.8,14.2,100.1,12.9,98.4,12.8z M84.9,26.3
		c0,2.2,2.6,2.8,2.6,5c0,2.2-2.6,2.9-2.6,4.9l-0.2,21.1l0.5,2.5l4.3,0.1c0.7-1.3,2.4-2,2.4-3.7c0-2.2-2.6-2.8-2.6-5
		c0-2.2,2.6-2.9,2.6-4.9l0.4-22.8C88.3,24.3,84.9,25.2,84.9,26.3z M89.4,62.2l-3.7,0.6c0.8,3.8,1.8,7.1,2.8,7
		c1.9,0.1,3.5-1.6,3.5-3.5C91.9,64.5,90,63.7,89.4,62.2z M93.8,23.1c1.2,5.5,2.8,16.7,4.6,16.6c1.9,0.1,3.5-1.6,3.5-3.5
		c0-2.2-2.6-2.8-2.6-4.9c0-2.3,2.6-2.9,2.6-5l0.1-4.7C99.8,22.1,96.8,22.5,93.8,23.1z M108.5,12.8c-1.1,0-1.8,0.6-2.5,1.3
		c0.8,3.1,1.6,5.6,2.5,5.6c1.9,0,3.5-1.7,3.5-3.5C112,14.4,110.4,12.7,108.5,12.8z"/>
</g>
</svg>
