<?xml version="1.0" encoding="utf-8"?>
<!-- Generator: Adobe Illustrator 20.0.0, SVG Export Plug-In . SVG Version: 6.00 Build 0)  -->
<svg version="1.1" id="Layer_1" xmlns="http://www.w3.org/2000/svg" xmlns:xlink="http://www.w3.org/1999/xlink" x="0px" y="0px"
	 viewBox="0 0 168 178.3" style="enable-background:new 0 0 168 178.3;" xml:space="preserve">
<style type="text/css">
	.st0{fill:#181819;}
</style>
<g>
	<path class="st0" d="M144.3,104.8c-1.8,0-2.6-20.5-2.9,2.6c0.2,4-4.9,5.3-4.9,9.3c0,4,4.9,5.3,4.9,9.3c0,8.4-6.8,15.7-15.4,15.4
		c-1.8,0.2-2.9-20.5-2.9,2.9c0,8.6-7.1,15.7-15.7,15.7c-2.9,0-4.2-2.9-6.6-4.2c-0.7,31.6-2.6,16.1-5.5,0.2c-2,1.5-3.5,4-6.2,4
		c-1.1,0-2-0.2-3.1-0.4c0.2,1.1,0.2,2,0.2,3.1c0,8.6-6.8,15.7-15.4,15.7c-4,0-5.3-4.9-9.3-4.9c-4,0-5.3,4.9-9.3,4.9
		c-3.8,0-5.1-4.9-9-4.9c-4.2,0-5.3,4.9-9.3,4.9c-8.6,0-15.7-6.8-15.7-15.7c0-1.5,20.5-2.6-2.6-2.6C7.1,160,0,152.9,0,144.3
		c0-4,4.9-5.1,4.9-9.3c0-4-4.9-5.3-4.9-9c0-4,4.9-5.3,4.9-9.3c0-4-4.9-5.3-4.9-9.3c0-3.8,4.9-5.1,4.9-9c0-4.2-4.9-5.3-4.9-9.3
		c0-8.6,6.8-15.7,15.7-15.7c1.5,0,2.6,20.5,2.6-2.6c0-4,5.1-5.3,5.1-9.3c0-4-5.1-5.3-5.1-9.3c0-8.6,7.1-15.7,15.7-15.4
		c1.8-0.2,2.6,20.5,2.9-2.9c-0.2-8.6,6.8-15.7,15.4-15.7c3.1,0,4.4,2.9,6.8,4.2c0.4-31.6,2.6-16.1,5.5-0.2c2-1.5,3.5-4,6.2-4
		c0.9,0,2,0.2,3.1,0.4c-0.2-1.1-0.4-2.2-0.4-3.1C73.5,6.8,80.5,0,89.1,0c4,0,5.1,4.9,9.3,4.9c4,0,5.3-4.9,9-4.9c4,0,5.3,4.9,9.3,4.9
		c4,0,5.3-4.9,9.3-4.9c8.6,0,15.7,6.8,15.4,15.7c0.2,1.5-20.5,2.6,2.9,2.6c4.2,0,7.9,1.5,10.6,4.2c19.4,0.7,14.6,2,3.1,3.8
		c1.1,2.2,2,4.9,2,7.7c0,4-5.1,5.1-5.1,9.3c0,4,5.1,5.3,5.1,9c0,4-5.1,5.3-5.1,9.3c0,4,5.1,5.3,5.1,9.3c0,3.8-5.1,5.1-5.1,9
		c0,4.2,5.1,5.3,5.1,9.3C160,97.7,152.9,104.8,144.3,104.8z M34,45.9c-3.5,0-6.4,2.9-6.4,6.4c0,4,4.9,5.3,4.9,9.3
		c0,4-4.9,5.3-4.9,9.3c0,100.8-4.9,11.9-11.9,11.9c-3.5,0-6.4,2.9-6.4,6.4c0,4,4.9,5.1,4.9,9.3c0,4-4.9,5.1-4.9,9
		c0,4,4.9,5.3,4.9,9.3c0,4-4.9,5.3-4.9,9.3c0,4,4.9,5.1,4.9,9c0,4.2-4.9,5.3-4.9,9.3c0,3.5,2.9,6.4,6.4,6.4c10.4,0,24.7-4,24.7-6.4
		c0-4-4.9-5.1-4.9-9.3c0-4,4.9-5.3,4.9-9c0-4-4.9-5.3-4.9-9.3c0-4,4.9-5.3,4.9-9.3l0.4-38.6C39.1,58.5,36.6,45.9,34,45.9z
		 M70.8,156.2c-4,0-5.3,5.1-9.3,5.1c-4,0-5.3-5.1-9.3-5.1c-7.9,0-24.7,4-24.7,6.4c0,3.5,2.9,6.4,6.4,6.4c4,0,5.1-4.9,9.3-4.9
		c4,0,5.1,4.9,9,4.9c4,0,5.3-4.9,9.3-4.9c4,0,5.3,4.9,9.3,4.9c3.5,0,6.4-2.9,6.4-6.4C77.2,159.3,74.4,156.2,70.8,156.2z M110.3,52.3
		c0-3.8,4.9-5.1,4.9-9c0-4.2-4.9-5.3-4.9-9.3c0-1.5,26.9-2.6-2.9-2.9c-4.2,0.2-4.9-4.9-9-4.9c-4,0-5.3,4.9-9.3,4.9
		c-1.1,0-2,0-3.1-0.2c0.2,1.1,0.2,2,0.2,3.1c0,8.6-6.8,15.7-15.4,15.7c-1.8,0-2.9-20.5-2.9,2.6c0,4-4.9,5.3-4.9,9.3
		c0,4,4.9,5.3,4.9,9.3c0,3.8-4.9,5.1-4.9,9c0,4.2,4.9,5.3,4.9,9.3c0,8.6-6.8,15.7-15.7,15.7c-1.5,0-2.6-20.5-2.6,2.6
		c0,4-5.1,5.3-5.1,9.3c0,4,5.1,5.3,5.1,9.3c0,3.8-5.1,5.1-5.1,9c0,4.2,5.1,5.3,5.1,9.3c0,1.5-20.5,2.6,2.6,2.9
		c4.2-0.2,4.9,4.9,9.3,4.9c3.8,0,5.3-4.9,9.3-4.9c1.1,0,2,0,3.1,0.2c-0.2-1.1-0.4-2-0.4-3.1c0-8.6,7.1-15.7,15.7-15.7
		c1.8,0,2.6,20.5,2.9-2.6c-0.2-4,4.9-5.3,4.9-9.3c0-4-4.9-5.3-4.9-9.3c0-4,4.9-5.1,4.9-9c0-4.2-4.9-5.3-4.9-9.3
		c0-8.6,6.8-15.7,15.4-15.7c1.8,0,2.9,20.5,2.9-2.6c0-4,4.9-5.3,4.9-9.3C115.2,57.6,110.3,56.3,110.3,52.3z M52.3,27.6
		c-3.5,0-6.4,2.9-6.4,6.4l-0.4,38.8c1.8,10.1,4.2,22.7,6.8,22.7c3.5,0,6.4-2.9,6.4-6.4c0-4-4.9-5.1-4.9-9.3c0-4,4.9-5.1,4.9-9
		c0-4-4.9-5.3-4.9-9.3c0-4,4.9-5.3,5.1-9.3c0,0,0-14.8,0-20.5C56.7,30.2,55.2,27.6,52.3,27.6z M70.8,27.6c-2,0-3.3,1.1-4.6,2.4
		c1.5,6,2.9,10.4,4.6,10.4c3.5,0,6.4-2.9,6.4-6.4C77.2,30.4,74.4,27.6,70.8,27.6z M126,9.3c-4,0-5.3,4.9-9.3,4.9
		c-4,0-5.3-4.9-9.3-4.9c-4,0-5.1,4.9-9,4.9c-4.2,0-5.3-4.9-9.3-4.9c-3.5,0-6.4,2.9-6.4,6.4c0,3.3,2.9,6.4,6.4,6.4
		c4,0,5.1-5.1,9.3-5.1c4,0,5.1,5.1,9,5.1c9,0,24.9-4,24.9-6.4C132.4,12.1,129.5,9.3,126,9.3z M89.1,137.9c-3.5,0-6.4,2.9-6.4,6.4
		c0,3.5,2.9,6.4,6.4,6.4c2,0,3.1-1.1,4.4-2.4C92.2,142.3,90.7,137.9,89.1,137.9z M107.5,82.7c-3.5,0-6.4,2.9-6.4,6.4
		c0,4,5.1,5.1,5.1,9.3c0,4-5.1,5.3-5.1,9c0,4,5.1,5.3,5.1,9.3c0,4-5.1,5.3-5.1,9.3v20.5c2.2,1.5,3.5,4.2,6.4,4.2
		c3.5,0,6.6-3.1,6.6-6.4l0.4-38.8C112.5,95.3,110.3,82.7,107.5,82.7z M145.8,79.9c0-4,4.9-5.3,4.9-9c0-4-4.9-5.3-4.9-9.3
		c0-4,4.9-5.3,4.9-9.3c0-3.8-4.9-5.1-4.9-9c0-4.2,4.9-5.3,4.9-9.3c0-2.9-1.8-5.3-4.4-6.2c-12.8,2-26.9,4-26.7,6.2
		c-0.2,4,4.9,5.1,4.9,9.3c0,4-4.9,5.1-4.9,9s4.9,5.3,4.9,9.3c0,4-4.9,5.3-5.1,9.3l-0.4,38.6c2,10.4,4.2,22.9,7.1,22.9
		c3.5,0,6.4-2.9,6.4-6.4c0-4-5.1-5.3-5.1-9.3c0-4,5.1-5.3,5.1-9.3c0-100.8,4.6-11.9,11.9-11.9c3.5,0,6.4-2.9,6.4-6.4
		C150.7,85.2,145.8,84.1,145.8,79.9z"/>
</g>
</svg>
