<?xml version="1.0" encoding="utf-8"?>
<!-- Generator: Adobe Illustrator 20.0.0, SVG Export Plug-In . SVG Version: 6.00 Build 0)  -->
<svg version="1.1" id="Layer_1" xmlns="http://www.w3.org/2000/svg" xmlns:xlink="http://www.w3.org/1999/xlink" x="0px" y="0px"
	 viewBox="0 0 150 178.3" style="enable-background:new 0 0 150 178.3;" xml:space="preserve">
<style type="text/css">
	.st0{fill:#181819;}
</style>
<g>
	<path class="st0" d="M127.9,161.3l-11,9.9l-20.9,7.1l-62-21.2l-10.5-18.7l-2.3-59.7L0,56.9l27.2-17.5L30,3.4c0,0,9.3-3.4,13.3-3.4
		c3.4,0,6.8,3.1,7.6,7.6l6.8,33.7c0.8,4.5,8.8,7.6,24.6,9.3c3.1,0.3,7.4,0.8,13,1.4v9.3c-9.3,2.8-11,4.5-16.1,15.3
		c-20.9,3.7-33.7,4-33.7,33.4c0,16.4,4.2,33.1,10.2,41c3.1,4,7.4,4.8,15.3,4c0.6-18.4,3.1-27.4,10.5-34.8
		c8.8-8.8,23.5-14.7,36.8-14.7c18.4,0,31.7,15.3,31.7,27.4C150,139.5,144,147.4,127.9,161.3z M126.5,114.3l7.9,33.1
		c6.2-6.5,8.2-10.2,8.2-15C142.6,126.8,137.8,121.1,126.5,114.3z"/>
</g>
</svg>
