<?xml version="1.0" encoding="utf-8"?>
<!-- Generator: Adobe Illustrator 20.0.0, SVG Export Plug-In . SVG Version: 6.00 Build 0)  -->
<svg version="1.1" id="Layer_1" xmlns="http://www.w3.org/2000/svg" xmlns:xlink="http://www.w3.org/1999/xlink" x="0px" y="0px"
	 viewBox="0 0 178.3 178.3" style="enable-background:new 0 0 178.3 178.3;" xml:space="preserve">
<style type="text/css">
	.st0{fill:#181819;}
</style>
<g>
	<path class="st0" d="M50.9,122.5c0,20.4,11.5,30.3,25.5,30.3s25.5-9.9,25.5-30.1V51.7c0-7.4-2.8-13.5-6.4-13.5
		c-3.3,0-6.4-5.6-6.4-12.7c0-6.9,3.1-12.7,6.4-12.7c3.6,0,6.4-2.8,6.4-6.4c0-3.3,5.9-6.4,12.7-6.4c7.1,0,12.7,3.1,12.7,6.4
		c0,3.6,11.5,6.4,25.5,6.4s25.5,5.9,25.5,12.7c0,7.1-10.2,11.5-25.7,12.7c-14,1.3-25.2,10.4-25.2,29.3v85.3
		c0,14-11.5,25.5-25.5,25.5H50.9c-14,0-25.5-11.5-25.5-25.5V63.7c0-14-5.6-25.5-12.7-25.5C5.9,38.2,0,32.6,0,25.5
		c0-6.9,5.9-12.7,12.7-12.7c7.1,0,12.7-2.8,12.7-6.4c0-3.3,5.9-6.4,12.7-6.4c7.1,0,12.7,11.5,12.7,25.5V122.5z"/>
</g>
</svg>
