<?xml version="1.0" encoding="utf-8"?>
<!-- Generator: Adobe Illustrator 19.2.1, SVG Export Plug-In . SVG Version: 6.00 Build 0)  -->
<!DOCTYPE svg PUBLIC "-//W3C//DTD SVG 1.1//EN" "http://www.w3.org/Graphics/SVG/1.1/DTD/svg11.dtd">
<svg version="1.1" id="Layer_1" xmlns="http://www.w3.org/2000/svg" xmlns:xlink="http://www.w3.org/1999/xlink" x="0px" y="0px"
	 viewBox="0 0 305.8 305.8" style="enable-background:new 0 0 305.8 305.8;" xml:space="preserve">
<style type="text/css">
	.st0{fill:#F9F9F9;}
</style>
<g>
	<path class="st0" d="M195.3,21.8c12.7,0,23.2-4.8,23.2-10.9S228,0,240.3,0c11.8,0,21.8,4.8,21.8,10.9s9.6,10.9,21.8,10.9
		c11.8,0,21.8,10,21.8,21.8c0,12.2-10,21.8-21.8,21.8c-12.2,0-21.8,4.8-21.8,10.9s-10,10.9-21.8,10.9c-12.2,0-21.8-4.8-21.8-10.9
		S208,65.5,195.3,65.5H111c-13.1,0-23.6,4.8-23.6,10.9s-9.6,10.9-21.8,10.9c-11.8,0-21.8-4.8-21.8-10.9s-9.6-10.9-21.8-10.9
		C10,65.5,0,55.9,0,43.7c0-11.8,10-21.8,21.8-21.8c12.2,0,21.8-4.8,21.8-10.9S53.7,0,65.5,0c12.2,0,21.8,4.8,21.8,10.9
		S97.9,21.8,111,21.8H195.3z M164.3,228.5c-15.3,18.8-9.6,33.6,13.1,33.6h17.9c12.7,0,23.2-4.8,23.2-10.9c0-5.7,9.6-10.9,21.8-10.9
		c11.8,0,21.8,14.9,21.8,32.8c0,17.9-19.7,32.8-43.7,32.8H87.4c-24,0-31-14.9-15.7-33.6l70.8-85.6c15.3-18.3,7.9-33.6-16.2-33.6
		H87.4c-24,0-43.7-9.6-43.7-21.8c0-11.8,19.7-21.8,43.7-21.8h131.9c24,0,31,15.3,15.7,33.6L164.3,228.5z"/>
</g>
</svg>
